<svg width="184" height="40" viewBox="0 0 184 40" fill="none" xmlns="http://www.w3.org/2000/svg">
<path d="M1.29123 39.5438C1.12983 39.5438 0.96842 39.5438 0.807017 39.3824C0.322807 39.0596 0 38.5754 0 38.0912C0 37.7684 0.161405 37.4456 0.322808 36.8C0.645615 36.1544 1.29123 35.3473 2.58245 34.3789C3.87368 33.4105 5.32631 32.4421 7.26315 31.6351C7.42456 31.4737 7.74736 31.4737 7.74736 31.4737C8.07017 29.8596 9.03859 27.1158 10.6526 23.2421C12.4281 19.3684 14.6877 15.1719 17.4316 10.4912C19.0456 7.74736 20.821 5.48773 22.4351 3.38948C24.3719 1.12983 25.6631 0 26.3088 0C27.1158 0 27.4386 0.322817 27.4386 0.96843C27.4386 1.45264 27.1158 2.09824 26.4702 2.74385C24.6947 4.68069 23.0807 6.61755 21.7895 8.7158C20.3368 10.814 18.7228 13.3965 16.9474 16.4631C15.9789 18.2386 14.8491 20.3368 13.7193 22.4351C12.5895 24.5333 11.7824 26.4702 11.1368 27.9228C10.4912 29.5368 10.1684 30.3439 10.1684 30.5053C13.2351 29.6982 16.3017 29.0526 19.3684 28.7298C20.4982 28.5684 21.4666 28.5684 22.2737 28.5684C24.8561 28.5684 26.4702 29.0526 27.1158 29.8596C27.2772 30.021 27.2772 30.1824 27.2772 30.3438C27.2772 30.6666 27.1158 30.8281 26.6316 30.8281C26.4702 30.8281 26.3088 30.8281 26.1473 30.8281C25.6631 30.6667 25.1789 30.6666 24.6947 30.6666C23.7263 30.6666 22.2737 30.8281 20.014 31.3123C14.6877 32.2807 10.4912 33.2491 7.42456 34.5403C6.13333 35.186 5.00351 35.8316 3.87368 36.4772C2.74386 37.1228 2.42105 37.7684 2.42105 38.0912V38.2526C2.42105 38.5754 2.25965 38.7368 2.09825 38.8982C2.25965 39.3824 1.77544 39.5438 1.29123 39.5438Z" fill="white"/>
<path d="M25.663 26.7929C25.3402 26.7929 25.1788 26.7929 25.0174 26.7929C23.5648 26.3087 22.9192 25.1788 22.9192 23.4034C22.9192 22.435 23.242 21.3052 23.7262 19.8525C24.2104 18.5613 25.1788 17.1087 26.6315 15.656C27.9227 14.5262 29.0525 13.8806 30.0209 13.8806C30.1823 13.8806 30.5051 13.8806 30.9894 14.042C31.4736 14.2034 31.7964 14.849 31.9578 16.3017C31.9578 16.9473 31.9578 17.2701 32.1192 17.4315C32.2806 17.7543 32.442 18.2385 32.442 18.7227C32.442 20.1753 31.9578 21.628 31.1508 22.9192C30.3437 24.2104 29.3753 25.3403 28.2455 25.9859C27.1157 26.6315 26.3087 26.7929 25.663 26.7929ZM25.8244 24.8561C26.4701 24.8561 27.1157 24.3718 28.0841 23.4034C29.2139 22.2736 29.8595 21.4666 29.8595 20.9824C29.6981 20.9824 29.5367 21.1438 29.3753 21.1438C28.8911 21.3052 28.5683 21.4666 28.2455 21.4666C28.0841 21.4666 27.7613 21.4666 27.5999 21.3052C27.4385 21.1438 27.4385 20.9824 27.4385 20.821C27.4385 20.4982 27.5999 20.1753 27.9227 19.8525C28.4069 19.2069 28.7297 18.7227 29.0525 18.0771C29.3753 17.4315 29.5367 16.9473 29.5367 16.6245V16.4631C29.3753 16.4631 29.0525 16.6245 28.5683 17.1087C27.2771 18.3999 26.1473 19.8525 25.663 21.4666C25.3402 22.2736 25.1788 23.0806 25.1788 23.7262C25.1788 24.3718 25.3402 24.8561 25.8244 24.8561Z" fill="white"/>
<path d="M40.0279 29.214H39.8665C39.5437 29.0526 39.3823 28.5684 39.3823 28.0842C39.3823 27.7614 39.5437 26.9544 39.7051 25.986C39.8665 25.0175 40.5122 23.4035 41.3192 21.3052C41.4806 20.821 41.642 20.6596 41.642 20.4982C41.642 20.4982 41.3192 20.6596 40.835 21.1439C37.7683 23.8877 35.8314 25.3403 34.7016 25.3403C33.8946 25.3403 33.5718 24.8561 33.4104 23.7263C33.4104 23.5649 33.4104 23.4035 33.4104 23.2421C33.4104 22.5965 33.5718 21.7895 33.7332 20.9824C34.056 20.014 34.3788 19.0456 34.863 17.9158C35.3472 16.786 35.9929 15.9789 36.4771 15.1719C37.1227 14.3649 37.6069 14.0421 37.9297 14.0421C38.5753 14.0421 39.0595 14.3649 39.0595 15.0105C39.0595 15.4947 38.8981 15.9789 38.4139 16.6246C36.9613 18.4 35.9929 20.3368 35.3472 22.5965C35.1858 22.7579 35.1858 23.0807 35.1858 23.2421C35.1858 23.2421 35.5086 23.0807 35.8315 22.7579L35.9929 22.5965C39.0595 20.1754 41.8034 17.4316 44.2244 14.5263C44.87 13.7193 45.3543 13.3965 45.8385 13.3965C45.9999 13.3965 46.3227 13.5579 46.4841 13.7193C46.8069 14.0421 46.9683 14.3649 46.9683 14.6877C46.9683 14.6877 46.9683 14.8491 46.9683 15.0105C46.9683 15.1719 46.6455 15.6561 46.3227 16.4631C45.5157 17.7544 44.2244 20.3368 42.449 24.2105C41.642 25.6631 40.9964 27.1158 40.5122 28.7298C40.5122 29.0526 40.3507 29.214 40.0279 29.214Z" fill="white"/>
<path d="M48.5823 25.6635C47.2911 25.6635 46.8069 25.0178 46.8069 23.5652C46.8069 22.4354 47.2911 20.9828 48.0981 19.2073C48.9051 17.7547 49.5507 16.7863 50.3578 16.1406C50.842 15.8178 51.1648 15.495 51.649 15.495C51.9718 15.495 52.1332 15.6564 52.2946 15.8178C52.6174 16.1407 52.7788 16.4635 52.7788 16.7863C52.7788 17.2705 52.456 17.7547 51.9718 18.2389C51.4876 18.7231 51.0034 19.5301 50.5192 20.1757C50.035 20.8213 49.7121 21.6284 49.5507 22.274C49.3893 22.5968 49.3893 22.9196 49.3893 23.2424C49.3893 23.5652 49.5507 23.7266 49.7121 23.7266C50.5192 23.7266 52.6174 22.7582 55.6841 20.9827C56.9753 20.1757 57.7823 19.8529 58.2665 19.8529C58.5893 19.8529 58.5893 20.0143 58.5893 20.1757C58.5893 20.6599 57.6209 21.6284 55.5227 22.7582C53.4244 24.0494 51.9718 24.8564 51.3262 25.0178C50.035 25.502 49.2279 25.6635 48.5823 25.6635ZM53.4244 14.688C53.263 14.688 52.9402 14.688 52.7788 14.5266C52.1332 14.2038 51.8104 13.7196 51.8104 13.074C51.8104 12.7512 51.9718 12.4284 52.1332 12.1056C52.2946 11.7828 52.6174 11.6214 53.1016 11.46C53.7472 11.46 54.2314 11.7828 54.5542 12.267C54.7156 12.5898 54.8771 12.9126 54.8771 13.2354C54.8771 13.5582 54.8771 13.7196 54.7157 14.0424C54.3928 14.5266 54.07 14.688 53.4244 14.688Z" fill="white"/>
<path d="M56.9753 26.6317C56.8139 26.6317 56.6524 26.6317 56.491 26.6317C56.1682 26.4703 56.0068 26.3089 56.0068 25.9861C56.0068 25.5019 56.6524 25.0177 57.7823 24.2107C58.5893 23.7265 59.0735 23.4037 59.5577 23.0809C60.0419 22.7581 60.2033 22.4353 60.2033 22.2738C60.2033 22.1124 59.8805 21.951 59.0735 21.4668C58.4279 21.144 57.9437 20.9826 57.7823 20.6598C57.4595 20.337 57.2981 20.0142 57.2981 19.53C57.2981 18.8844 57.6209 18.2388 58.2665 17.2703C58.9121 16.4633 59.8805 15.6563 60.8489 14.6879C61.9788 13.8809 62.9472 13.2353 63.9156 12.7511C64.5612 12.4283 65.0454 12.2668 65.5296 12.2668C65.8524 12.2668 66.0138 12.2668 66.1752 12.4282C66.8209 12.751 67.1437 13.2353 67.1437 14.0423C67.1437 14.5265 66.8209 15.3335 66.3367 16.3019C65.2068 18.4002 64.2384 19.53 63.7542 19.53C63.5928 19.53 63.4314 19.53 63.4314 19.3686C63.27 19.2072 63.1086 19.0458 63.1086 18.723C63.1086 18.4002 63.5928 17.2704 64.3998 15.1721C64.2384 15.1721 63.5928 15.6563 62.3016 16.4633C61.1717 17.4317 60.3647 18.0774 59.8805 18.723C59.7191 18.8844 59.7191 18.8844 59.7191 18.8844C59.7191 18.8844 59.8805 19.0458 60.2033 19.2072C61.656 20.0142 62.3016 20.8212 62.3016 21.7896C62.3016 22.4352 61.9788 23.2423 61.1717 23.8879C60.3647 24.6949 59.3963 25.1791 58.4279 25.6633C57.9437 26.4703 57.4595 26.6317 56.9753 26.6317Z" fill="white"/>
<path d="M80.5406 34.0562C80.2178 34.0562 79.895 34.0562 79.7336 33.8948C78.9266 33.572 78.281 32.765 77.7968 31.6351C77.3126 30.5053 76.9898 28.7299 76.8284 26.3088C76.8284 25.6632 76.8284 24.8562 76.8284 24.0492C76.8284 22.2738 76.9898 20.1755 77.1512 17.7544C77.474 15.3334 77.7968 12.9124 78.4424 10.6527C79.088 8.39306 79.5722 6.94042 80.2178 6.45621C80.5406 6.29481 80.8634 6.13341 81.1863 6.13341C81.5091 6.13341 81.6705 6.29481 81.8319 6.45621C81.9933 6.61761 82.1547 7.10183 82.1547 7.42464C82.1547 7.74745 81.9933 8.23166 81.8319 8.71587C81.0249 10.8141 80.5406 13.3966 80.0564 16.3018C79.7336 19.0457 79.4108 21.6281 79.4108 24.2106C79.4108 24.372 79.4108 25.179 79.4108 26.6316C79.4108 28.0843 79.7336 29.3755 80.2178 30.8281C80.2178 30.9895 80.3792 31.1509 80.5406 31.1509C80.5406 31.1509 80.702 31.1509 81.0249 30.9895C81.6705 30.5053 84.5757 25.8246 89.7406 16.786C91.0319 14.5264 92.6459 11.6211 94.4213 8.07024C95.5512 5.8106 96.5196 4.19658 97.1652 3.06675C97.9722 1.61412 98.6178 0.968506 99.102 0.968506C99.2634 0.968506 99.4248 1.1299 99.5862 1.29131C99.5862 1.29131 99.7476 1.45271 99.7476 1.61411C99.7476 2.25972 99.2634 3.71236 98.295 5.81061C96.0354 10.9755 91.6775 18.8843 85.3827 29.2141C83.6073 32.4422 81.8319 34.0562 80.5406 34.0562Z" fill="white"/>
<path d="M95.712 25.1792C95.3892 25.1792 95.2277 25.1792 95.0663 25.0177C94.2593 24.6949 93.9365 24.2107 93.9365 23.4037C93.9365 23.2423 93.9365 22.9195 94.0979 22.4353C94.0979 21.9511 94.5821 20.9827 95.3892 19.8528C96.1962 18.723 97.1646 17.7546 98.4558 16.7862C99.7471 15.8178 100.877 15.3335 102.329 15.0107C102.652 15.0107 102.975 15.0107 103.137 15.0107C103.944 15.0107 104.751 15.3335 105.396 15.8178C106.042 16.302 106.365 17.109 106.365 18.2388C106.365 18.4002 106.365 18.5616 106.526 18.8844C106.687 19.2072 106.687 19.53 106.687 19.8528C106.687 20.0142 106.687 20.337 106.687 20.4984V20.9827C106.687 22.1125 107.172 22.5967 108.14 22.5967C109.27 22.5967 110.884 21.9511 113.305 20.4984C113.951 20.1756 114.273 19.8528 114.435 19.8528H114.596C114.758 19.8528 114.758 19.8529 114.919 20.0143C115.08 20.0143 115.08 20.0142 115.08 20.1756C115.08 20.337 115.242 20.337 115.242 20.4984C115.242 20.9827 114.112 21.9511 111.691 23.2423C109.431 24.3721 107.817 25.0177 106.849 25.0177C106.526 25.0177 106.203 24.8563 105.719 24.6949C105.235 24.5335 104.751 24.0493 104.428 23.4037C104.105 22.9195 103.944 22.4353 103.944 22.1125V21.9511C103.782 21.9511 103.137 22.2739 102.007 22.9195L101.845 23.0809C100.07 24.2107 98.6172 24.8563 97.6488 25.3405C96.6804 25.1791 96.1962 25.1792 95.712 25.1792ZM96.1962 23.2423C96.3576 23.2423 96.519 23.0809 96.8418 22.9195C97.6488 22.4353 98.6172 21.9511 99.747 21.3055C100.877 20.6599 101.684 20.0142 102.491 19.3686C103.298 18.723 103.621 18.4002 103.621 18.2388C103.459 17.7546 103.137 17.4318 102.652 17.4318C102.491 17.4318 102.168 17.5932 101.522 17.7546C101.038 17.916 100.231 18.4002 99.1014 19.3686C97.9716 20.337 97.1646 21.3055 96.3576 22.5967C96.1962 22.9195 96.0348 23.0809 96.1962 23.2423C96.1962 23.2423 96.0348 23.2423 96.1962 23.2423Z" fill="white"/>
<path d="M112.983 29.6984C112.821 29.6984 112.66 29.6984 112.498 29.6984C111.53 29.537 111.046 28.7299 111.046 27.4387C111.046 25.5019 112.175 22.1124 114.435 17.5931C116.211 14.2037 117.986 11.2984 119.761 8.87733C121.537 6.45628 122.99 5.16507 123.958 5.00366C124.926 5.00366 125.249 5.32645 125.249 5.97207C125.249 6.45628 124.926 7.10191 124.281 7.90893C120.891 11.2984 117.825 16.3019 114.919 22.758C114.435 24.0493 113.951 25.0177 113.628 25.9861C113.467 26.6317 113.305 27.1159 113.305 27.2773C113.305 27.4387 113.305 27.4387 113.305 27.4387C114.435 26.7931 115.565 26.1475 116.533 25.5019C119.761 23.4036 122.182 21.951 123.797 20.9826C125.249 20.1756 126.218 19.8528 126.702 19.8528C126.863 19.8528 126.863 19.8528 127.025 19.8528C127.347 20.0142 127.509 20.1756 127.509 20.4984C127.509 20.8212 127.347 21.144 126.863 21.144C126.54 21.144 123.312 23.2422 117.018 27.6001C115.888 28.4072 115.081 28.8914 114.597 29.2142C114.112 29.537 113.467 29.6984 112.983 29.6984Z" fill="white"/>
<path d="M125.572 29.6984C125.411 29.6984 125.249 29.6984 125.088 29.6984C124.119 29.537 123.635 28.7299 123.635 27.4387C123.635 25.5019 124.765 22.1124 127.025 17.5931C128.8 14.2037 130.576 11.2984 132.351 8.87733C134.126 6.45628 135.579 5.16507 136.548 5.00366C137.516 5.00366 137.839 5.32645 137.839 5.97207C137.839 6.45628 137.516 7.10191 136.87 7.90893C133.481 11.2984 130.414 16.3019 127.509 22.758C127.025 24.0493 126.541 25.0177 126.218 25.9861C126.056 26.6317 125.895 27.1159 125.895 27.2773C125.895 27.4387 125.895 27.4387 125.895 27.4387C127.025 26.7931 128.155 26.1475 129.123 25.5019C132.351 23.4036 134.772 21.951 136.386 20.9826C137.839 20.1756 138.807 19.8528 139.291 19.8528C139.453 19.8528 139.453 19.8528 139.614 19.8528C139.937 20.0142 140.098 20.1756 140.098 20.4984C140.098 20.8212 139.937 21.144 139.453 21.144C139.13 21.144 135.902 23.2422 129.607 27.6001C128.477 28.4072 127.67 28.8914 127.186 29.2142C126.541 29.537 126.056 29.6984 125.572 29.6984Z" fill="white"/>
<path d="M138.968 25.1792C138.645 25.1792 138.484 25.1792 138.323 25.0177C137.516 24.6949 137.193 24.2107 137.193 23.4037C137.193 23.2423 137.193 22.9195 137.354 22.4353C137.354 21.9511 137.838 20.9827 138.645 19.8528C139.453 18.723 140.421 17.7546 141.712 16.7862C143.003 15.8178 144.133 15.3335 145.586 15.0107C145.909 15.0107 146.231 15.0107 146.393 15.0107C147.2 15.0107 148.007 15.3335 148.653 15.8178C149.298 16.302 149.621 17.109 149.621 18.2388C149.621 18.4002 149.621 18.5616 149.782 18.8844C149.944 19.2072 149.944 19.53 149.944 19.8528C149.944 20.0142 149.944 20.337 149.944 20.4984V20.9827C149.944 22.1125 150.428 22.5967 151.396 22.5967C152.526 22.5967 154.14 21.9511 156.561 20.4984C157.207 20.1756 157.53 19.8528 157.691 19.8528H157.852C158.014 19.8528 158.014 19.8529 158.175 20.0143C158.337 20.0143 158.337 20.0142 158.337 20.1756C158.337 20.337 158.498 20.337 158.498 20.4984C158.498 20.9827 157.368 21.9511 154.947 23.2423C152.688 24.3721 151.074 25.0177 150.105 25.0177C149.782 25.0177 149.46 24.8563 148.975 24.6949C148.491 24.5335 148.007 24.0493 147.684 23.4037C147.361 22.9195 147.2 22.4353 147.2 22.1125V21.9511C147.038 21.9511 146.393 22.2739 145.263 22.9195L145.102 23.0809C143.326 24.2107 141.874 24.8563 140.905 25.3405C139.775 25.1791 139.291 25.1792 138.968 25.1792ZM139.453 23.2423C139.614 23.2423 139.775 23.0809 140.098 22.9195C140.905 22.4353 141.874 21.9511 143.003 21.3055C144.133 20.6599 144.94 20.0142 145.747 19.3686C146.554 18.723 146.877 18.4002 146.877 18.2388C146.716 17.7546 146.393 17.4318 145.909 17.4318C145.747 17.4318 145.424 17.5932 144.779 17.7546C144.295 17.916 143.488 18.4002 142.358 19.3686C141.228 20.337 140.421 21.3055 139.614 22.5967C139.453 22.9195 139.291 23.0809 139.453 23.2423C139.291 23.2423 139.291 23.2423 139.453 23.2423Z" fill="white"/>
<path d="M157.852 27.1158C155.754 27.1158 154.786 26.3088 154.786 24.5334C154.786 22.9194 155.754 20.9825 157.53 18.7229C158.659 17.2702 159.789 16.3018 161.08 15.4948C162.372 14.6878 163.501 14.365 164.631 14.365C165.6 14.365 166.407 14.8492 166.729 15.6562C166.729 15.8176 166.729 16.1404 166.729 16.3018C166.729 16.9474 166.407 17.5931 165.922 18.4001C165.438 19.2071 164.631 20.0141 163.663 20.8211C162.694 21.6281 161.565 22.2737 160.596 22.5965C160.112 22.758 159.628 22.9194 159.305 22.9194C158.821 22.9194 158.498 22.758 158.014 22.5965H157.852C157.852 22.5965 157.691 22.7579 157.691 22.9194C157.368 23.565 157.207 24.2106 157.207 24.372C157.207 25.0176 157.53 25.3404 158.175 25.3404C159.466 25.3404 161.242 24.8562 163.824 23.7264C166.407 22.5965 168.828 21.4667 171.087 20.0141C171.41 19.8527 171.572 19.6913 171.733 19.6913C171.894 19.6913 171.894 19.6913 172.056 19.8527C172.217 20.0141 172.217 20.1755 172.217 20.3369C172.217 20.8211 171.572 21.4667 170.119 22.4352C168.666 23.4036 166.407 24.5334 163.34 25.8246C160.758 26.6316 158.982 27.1158 157.852 27.1158ZM159.305 20.6597C159.951 20.6597 161.08 20.0141 162.533 18.5615C163.34 17.7544 163.663 17.2702 163.663 17.1088C163.663 17.1088 163.663 16.9474 163.501 16.9474C163.179 16.9474 162.694 17.2702 161.887 17.7544C161.08 18.2387 160.435 18.8843 159.789 19.5299C159.466 20.1755 159.305 20.4983 159.305 20.6597Z" fill="white"/>
<path d="M173.186 33.8946H173.025C172.702 33.7332 172.54 33.5718 172.54 33.249C172.54 33.0876 172.702 32.7648 172.863 32.442C173.186 31.9578 174.154 30.3437 175.607 27.7613C177.867 23.8876 179.158 21.1438 179.804 19.5297C175.446 23.242 172.863 25.0174 171.733 25.0174C170.926 25.0174 170.442 24.5332 170.442 23.4034C170.442 21.4666 171.411 18.8841 173.347 15.656C173.993 14.6876 174.477 14.2034 174.961 14.2034C175.284 14.2034 175.446 14.3648 175.768 14.6876C175.93 15.0104 176.091 15.1718 176.091 15.4946C176.091 15.4946 176.091 15.6561 176.091 15.9789C176.091 16.1403 175.768 16.7859 175.284 17.4315C174.961 18.0771 174.477 18.7227 174.154 19.3683C173.832 20.0139 173.509 20.6596 173.347 21.1438C173.186 21.628 173.025 21.9508 173.025 22.1122C173.025 22.1122 173.509 21.7894 174.316 21.3052C176.575 19.6911 178.351 18.0771 179.642 16.4631C180.288 15.656 180.772 15.0104 181.095 14.6876C181.579 14.2034 182.063 13.8806 182.386 13.8806C182.547 13.8806 182.709 13.8806 182.87 14.042C183.516 14.2034 184 14.6876 184 15.656C184 16.1402 183.839 16.9473 183.354 18.2385C183.032 19.5297 181.579 22.2736 179.158 26.4701C176.253 31.4736 174.316 33.8946 173.186 33.8946Z" fill="white"/>
</svg>
