<svg width="490" height="490" viewBox="0 0 490 490" fill="none" xmlns="http://www.w3.org/2000/svg">
<path fill-rule="evenodd" clip-rule="evenodd" d="M0.5 245C0.5 109.441 109.441 0.5 245 0.5C380.559 0.5 489.5 109.441 489.5 245C489.5 380.582 379.413 489.5 245 489.5C110.587 489.5 0.5 380.582 0.5 245ZM245 15.5C117.725 15.5 15.5 117.725 15.5 245C15.5 372.252 118.825 474.5 245 474.5C371.175 474.5 474.5 372.252 474.5 245C474.5 117.725 372.275 15.5 245 15.5Z" fill="#325A49"/>
<path d="M107.967 351.706C106.844 351.706 105.72 351.706 104.597 350.583C101.228 348.337 98.9811 344.967 98.9811 341.597C98.9811 339.351 100.104 337.104 101.227 332.611C103.474 328.118 107.967 322.502 116.953 315.763C125.938 309.024 136.047 302.284 149.526 296.668C150.649 295.545 152.896 295.545 152.896 295.545C155.142 284.313 161.882 265.218 173.114 238.261C185.469 211.303 201.194 182.1 220.289 149.526C231.521 130.431 243.877 114.706 255.109 100.104C268.588 84.3791 277.574 76.5166 282.066 76.5166C287.683 76.5166 289.929 78.763 289.929 83.2559C289.929 86.6256 287.683 91.1184 283.19 95.6113C270.834 109.09 259.602 122.569 250.616 137.171C240.507 151.773 229.275 169.744 216.919 191.085C210.18 203.441 202.318 218.043 194.455 232.645C186.592 247.246 180.976 260.725 176.483 270.834C171.991 282.066 169.744 287.682 169.744 288.806C191.085 283.19 212.427 278.697 233.768 276.45C241.63 275.327 248.37 275.327 253.986 275.327C271.957 275.327 283.19 278.697 287.683 284.313C288.806 285.436 288.806 286.559 288.806 287.682C288.806 289.929 287.683 291.052 284.313 291.052C283.19 291.052 282.066 291.052 280.943 291.052C277.574 289.929 274.204 289.929 270.834 289.929C264.095 289.929 253.986 291.052 238.261 294.422C201.194 301.161 171.991 307.901 150.649 316.886C141.664 321.379 133.801 325.872 125.938 330.365C119.199 335.981 115.829 339.351 115.829 341.597V342.72C115.829 344.967 114.706 346.09 113.583 347.213C114.706 350.583 111.337 351.706 107.967 351.706Z" fill="#325A49"/>
<path d="M229.275 403.374C227.028 403.374 224.782 402.251 223.659 401.128C218.043 397.758 214.673 392.142 213.55 383.156C211.303 374.171 211.303 361.815 212.427 346.09C212.427 341.597 213.55 335.981 214.673 331.488C216.919 319.133 219.166 305.654 223.659 288.806C228.152 271.957 233.768 256.232 239.384 241.63C246.123 227.028 251.739 218.043 256.232 214.673C258.479 213.55 260.725 213.55 262.972 213.55C265.218 213.55 266.341 214.673 267.464 216.919C268.588 219.166 268.588 221.412 268.588 223.659C268.588 225.905 267.464 229.275 265.218 232.645C257.355 246.123 250.616 262.972 245 283.19C239.384 301.161 234.891 319.133 232.645 337.104C232.645 338.227 231.521 343.844 230.398 352.829C229.275 362.938 229.275 371.924 231.521 383.156C231.521 384.28 232.645 385.403 233.768 385.403C233.768 385.403 234.891 385.403 237.137 384.28C241.63 382.033 267.464 352.829 312.393 295.545C323.626 280.943 338.227 262.972 353.953 241.63C364.062 227.028 373.047 216.919 378.664 210.18C386.526 201.194 391.019 196.701 394.389 197.825C395.512 197.825 396.635 198.948 397.758 200.071C397.758 201.194 397.758 201.194 397.758 202.318C396.635 206.81 392.142 215.796 383.156 230.398C361.815 264.095 323.626 313.517 269.711 377.54C251.739 396.635 238.261 405.621 229.275 403.374Z" fill="#325A49"/>
</svg>
